<svg width="16" height="16" viewBox="0 0 16 16" fill="none" xmlns="http://www.w3.org/2000/svg">
<path d="M8.16265 2.66675C8.51865 2.66875 9.40931 2.67741 10.356 2.71541L10.692 2.73008C11.6446 2.77475 12.5966 2.85208 13.0693 2.98341C13.6993 3.16075 14.194 3.67675 14.3613 4.33141C14.628 5.37141 14.6613 7.39942 14.6653 7.89075L14.666 7.99208V8.10808C14.6613 8.59941 14.628 10.6281 14.3613 11.6674C14.192 12.3241 13.6966 12.8407 13.0693 13.0154C12.5966 13.1467 11.6446 13.2241 10.692 13.2687L10.356 13.2841C9.40931 13.3214 8.51865 13.3307 8.16265 13.3321L8.00598 13.3327H7.83598C7.08265 13.3281 3.93198 13.2941 2.92931 13.0154C2.29998 12.8381 1.80465 12.3221 1.63731 11.6674C1.37065 10.6274 1.33731 8.59941 1.33331 8.10808V7.89075C1.33731 7.39942 1.37065 5.37075 1.63731 4.33141C1.80665 3.67475 2.30198 3.15808 2.92998 2.98408C3.93198 2.70475 7.08331 2.67075 7.83665 2.66675H8.16265ZM6.66598 5.66675V10.3334L10.666 8.00008L6.66598 5.66675Z" fill="white"/>
</svg>
