<svg width="146" height="32" viewBox="0 0 146 32" fill="none" xmlns="http://www.w3.org/2000/svg">
<path fill-rule="evenodd" clip-rule="evenodd" d="M4.61875 27.3798C6.57341 29.3332 9.71475 29.3332 16.0001 29.3332C22.2854 29.3332 25.4281 29.3332 27.3801 27.3798C29.3334 25.4292 29.3334 22.2852 29.3334 15.9998C29.3334 9.7145 29.3334 6.57184 27.3801 4.6185C25.4294 2.6665 22.2854 2.6665 16.0001 2.6665C9.71475 2.6665 6.57208 2.6665 4.61875 4.6185C2.66675 6.57317 2.66675 9.7145 2.66675 15.9998C2.66675 22.2852 2.66675 25.4278 4.61875 27.3798ZM12.6667 11.6665C11.8097 11.6665 10.9719 11.9206 10.2593 12.3968C9.54666 12.873 8.99125 13.5497 8.66327 14.3415C8.33529 15.1334 8.24948 16.0046 8.41668 16.8452C8.58388 17.6858 8.99659 18.4579 9.60262 19.064C10.2086 19.67 10.9808 20.0827 11.8214 20.2499C12.6619 20.4171 13.5332 20.3313 14.325 20.0033C15.1169 19.6753 15.7936 19.1199 16.2698 18.4073C16.7459 17.6947 17.0001 16.8569 17.0001 15.9998C17.0001 15.7346 17.1054 15.4803 17.293 15.2927C17.4805 15.1052 17.7349 14.9998 18.0001 14.9998C18.2653 14.9998 18.5197 15.1052 18.7072 15.2927C18.8947 15.4803 19.0001 15.7346 19.0001 15.9998C19.0001 17.2525 18.6286 18.4769 17.9327 19.5184C17.2368 20.56 16.2477 21.3717 15.0904 21.8511C13.9331 22.3304 12.6597 22.4558 11.4312 22.2115C10.2026 21.9671 9.07414 21.3639 8.18841 20.4782C7.30267 19.5924 6.69948 18.464 6.45511 17.2354C6.21073 16.0069 6.33616 14.7334 6.81551 13.5762C7.29487 12.4189 8.10663 11.4298 9.14814 10.7339C10.1896 10.0379 11.4141 9.6665 12.6667 9.6665C12.932 9.6665 13.1863 9.77186 13.3739 9.9594C13.5614 10.1469 13.6667 10.4013 13.6667 10.6665C13.6667 10.9317 13.5614 11.1861 13.3739 11.3736C13.1863 11.5611 12.932 11.6665 12.6667 11.6665ZM23.6667 15.9998C23.6667 17.1491 23.2102 18.2513 22.3975 19.064C21.5849 19.8766 20.4827 20.3332 19.3334 20.3332C19.0682 20.3332 18.8138 20.4385 18.6263 20.6261C18.4388 20.8136 18.3334 21.068 18.3334 21.3332C18.3334 21.5984 18.4388 21.8527 18.6263 22.0403C18.8138 22.2278 19.0682 22.3332 19.3334 22.3332C20.586 22.3332 21.8105 21.9617 22.852 21.2658C23.8935 20.5699 24.7053 19.5808 25.1847 18.4235C25.664 17.2662 25.7894 15.9928 25.5451 14.7643C25.3007 13.5357 24.6975 12.4072 23.8118 11.5215C22.926 10.6358 21.7975 10.0326 20.569 9.7882C19.3404 9.54382 18.067 9.66924 16.9098 10.1486C15.7525 10.628 14.7634 11.4397 14.0674 12.4812C13.3715 13.5227 13.0001 14.7472 13.0001 15.9998C13.0001 16.2651 13.1054 16.5194 13.293 16.7069C13.4805 16.8945 13.7349 16.9998 14.0001 16.9998C14.2653 16.9998 14.5197 16.8945 14.7072 16.7069C14.8947 16.5194 15.0001 16.2651 15.0001 15.9998C15.0001 14.8506 15.4566 13.7484 16.2693 12.9357C17.0819 12.123 18.1841 11.6665 19.3334 11.6665C20.4827 11.6665 21.5849 12.123 22.3975 12.9357C23.2102 13.7484 23.6667 14.8506 23.6667 15.9998Z" fill="#633CFF"/>
<path d="M48.9977 25.72V22.556L49.2748 22.612C49.0901 23.6387 48.536 24.46 47.6126 25.076C46.7077 25.692 45.6181 26 44.3438 26C43.051 26 41.9245 25.7013 40.9641 25.104C40.0223 24.488 39.2928 23.6293 38.7757 22.528C38.2586 21.4267 38 20.1293 38 18.636C38 17.124 38.2678 15.808 38.8034 14.688C39.3389 13.568 40.0869 12.7 41.0472 12.084C42.026 11.468 43.1618 11.16 44.4546 11.16C45.8028 11.16 46.8924 11.4773 47.7234 12.112C48.573 12.7467 49.0716 13.6147 49.2194 14.716L48.9146 14.744V5.56H53.07V25.72H48.9977ZM45.6735 22.64C46.6523 22.64 47.4464 22.2947 48.0559 21.604C48.6653 20.8947 48.97 19.8867 48.97 18.58C48.97 17.2733 48.6561 16.2747 48.0282 15.584C47.4187 14.8747 46.6154 14.52 45.6181 14.52C44.6577 14.52 43.8636 14.8747 43.2357 15.584C42.6263 16.2933 42.3215 17.3013 42.3215 18.608C42.3215 19.9147 42.6263 20.9133 43.2357 21.604C43.8636 22.2947 44.6762 22.64 45.6735 22.64Z" fill="#333333"/>
<path d="M63.0408 26C61.471 26 60.1044 25.692 58.9409 25.076C57.7774 24.4413 56.8724 23.564 56.2261 22.444C55.5981 21.324 55.2842 20.036 55.2842 18.58C55.2842 17.1053 55.5981 15.8173 56.2261 14.716C56.8724 13.596 57.7681 12.728 58.9132 12.112C60.0582 11.4773 61.3879 11.16 62.9023 11.16C64.3612 11.16 65.6263 11.4587 66.6975 12.056C67.7686 12.6533 68.5997 13.484 69.1907 14.548C69.7816 15.612 70.0771 16.8627 70.0771 18.3C70.0771 18.5987 70.0679 18.8787 70.0494 19.14C70.0309 19.3827 70.0032 19.616 69.9663 19.84H57.722V17.068H66.6144L65.8941 17.572C65.8941 16.4147 65.6171 15.5653 65.063 15.024C64.5275 14.464 63.7887 14.184 62.8469 14.184C61.7572 14.184 60.9077 14.5573 60.2983 15.304C59.7073 16.0507 59.4118 17.1707 59.4118 18.664C59.4118 20.12 59.7073 21.2027 60.2983 21.912C60.9077 22.6213 61.8127 22.976 63.0131 22.976C63.6779 22.976 64.2504 22.864 64.7306 22.64C65.2108 22.416 65.5709 22.052 65.811 21.548H69.717C69.2553 22.9293 68.4612 24.0213 67.3346 24.824C66.2265 25.608 64.7952 26 63.0408 26Z" fill="#333333"/>
<path d="M75.7441 25.72L70.176 11.44H74.6361L78.9853 24.768H76.6583L80.9799 11.44H85.3291L79.761 25.72H75.7441Z" fill="#333333"/>
<path d="M86.9349 25.72V5.56H91.0903V25.72H86.9349Z" fill="#333333"/>
<path d="M94.4015 25.72V11.44H98.5569V25.72H94.4015ZM94.263 9.536V5H98.6954V9.536H94.263Z" fill="#333333"/>
<path d="M101.868 25.72V11.44H105.94V14.8H106.023V25.72H101.868ZM111.702 25.72V16.872C111.702 16.088 111.499 15.5 111.093 15.108C110.705 14.716 110.133 14.52 109.375 14.52C108.729 14.52 108.147 14.6693 107.63 14.968C107.132 15.2667 106.734 15.6773 106.439 16.2C106.162 16.7227 106.023 17.3387 106.023 18.048L105.663 14.604C106.125 13.5587 106.799 12.728 107.686 12.112C108.591 11.4773 109.699 11.16 111.01 11.16C112.58 11.16 113.78 11.608 114.611 12.504C115.442 13.3813 115.858 14.5667 115.858 16.06V25.72H111.702Z" fill="#333333"/>
<path d="M119.02 25.72V5.56H123.175V25.72H119.02ZM128.078 25.72L122.205 18.3L127.94 11.44H132.732L126.001 18.944L126.194 17.628L133.009 25.72H128.078Z" fill="#333333"/>
<path d="M139.795 26C137.726 26 136.083 25.58 134.864 24.74C133.645 23.9 132.98 22.7427 132.869 21.268H136.581C136.674 21.9027 136.988 22.388 137.523 22.724C138.077 23.0413 138.834 23.2 139.795 23.2C140.663 23.2 141.291 23.0787 141.678 22.836C142.085 22.5747 142.288 22.2107 142.288 21.744C142.288 21.3893 142.168 21.1187 141.928 20.932C141.706 20.7267 141.291 20.5587 140.681 20.428L138.41 19.952C136.729 19.5973 135.492 19.0653 134.698 18.356C133.903 17.628 133.506 16.6947 133.506 15.556C133.506 14.1747 134.033 13.1013 135.085 12.336C136.138 11.552 137.606 11.16 139.49 11.16C141.355 11.16 142.842 11.5427 143.95 12.308C145.058 13.0547 145.668 14.1 145.778 15.444H142.066C141.992 14.9587 141.734 14.5947 141.291 14.352C140.847 14.0907 140.219 13.96 139.407 13.96C138.668 13.96 138.114 14.072 137.745 14.296C137.394 14.5013 137.218 14.8 137.218 15.192C137.218 15.528 137.366 15.7987 137.662 16.004C137.957 16.1907 138.447 16.3587 139.13 16.508L141.678 17.04C143.101 17.3387 144.172 17.8987 144.892 18.72C145.631 19.5227 146 20.4747 146 21.576C146 22.976 145.455 24.068 144.366 24.852C143.294 25.6173 141.771 26 139.795 26Z" fill="#333333"/>
</svg>
